# xmcd CD database file
#
# Track frame offsets:
#	150
#	17060
#	40080
#	63550
#	67500
#	91727
#	114397
#	116160
#	139277
#	159875
#	182792
#	203520
#	226995
#
# Disc length: 3108 seconds
#
# Revision: 6
# Processed by: cddbd v1.5.2PL0 Copyright (c) Steve Scherf et al.
# Submitted via: CDex 1.51
#
DISCID=a00c220d
DTITLE=Swing Out Sister - Shapes and Patterns
DYEAR=1997
DGENRE=Jazz
TTITLE0=Somewhere in the World
TTITLE1=Here and Now
TTITLE2=We Could Make It Happen
TTITLE3=Shapes and Patterns
TTITLE4=Better Make It Better
TTITLE5=Something Out of This World
TTITLE6=Joe Meek's Cat
TTITLE7=Stoned Soul Picnic
TTITLE8=You Already Know
TTITLE9=Always
TTITLE10=Now You're Not Here
TTITLE11=Icy Cold As Winter
TTITLE12=Shapes and Patterns [reprise]
EXTD=(c) 1994, 1997 Mercury records\n31453 47412 YEAR: 1997
EXTT0=
EXTT1=
EXTT2=
EXTT3=
EXTT4=
EXTT5=
EXTT6=
EXTT7=
EXTT8=
EXTT9=
EXTT10=
EXTT11=
EXTT12=
PLAYORDER=
